<svg height="512pt" viewBox="0 0 512 512.00163" width="512pt" xmlns="http://www.w3.org/2000/svg"><path d="m473.953125 38.042969c-50.722656-50.726563-133.261719-50.722657-183.988281 0l-87.039063 87.042969c-13.691406 13.691406-23.949219 29.898437-30.355469 47.574218-17.734374 6.460938-34.054687 16.839844-47.484374 30.265625l-87.039063 87.042969c-50.726563 50.726562-50.726563 133.261719 0 183.988281 25.359375 25.363281 58.675781 38.042969 91.992187 38.042969 33.316407 0 66.632813-12.679688 91.992188-38.042969l87.042969-87.042969c13.6875-13.6875 23.941406-29.886718 30.347656-47.558593 17.917969-6.496094 33.882813-16.667969 47.492187-30.28125l87.042969-87.042969c50.722657-50.722656 50.722657-133.261719-.003906-183.988281zm-271.027344 271.03125c9.652344 9.648437 20.734375 17.679687 32.769531 23.839843l-77.351562 77.355469c-15.609375 15.605469-41.003906 15.605469-56.613281 0-15.605469-15.609375-15.605469-41.003906 0-56.613281l77.308593-77.308594c6.121094 11.933594 14.128907 22.96875 23.886719 32.726563zm84.917969 56.613281-87.039062 87.039062c-18.902344 18.902344-44.035157 29.3125-70.765626 29.3125-26.730468 0-51.863281-10.410156-70.765624-29.3125-39.019532-39.019531-39.019532-102.511718 0-141.53125l87.042968-87.039062c5.730469-5.734375 11.996094-10.667969 18.738282-14.777344-.148438 2.554688-.234376 5.121094-.234376 7.699219 0 9.796875 1.078126 19.425781 3.171876 28.753906l-.449219-.445312-87.039063 87.039062c-27.3125 27.316407-27.3125 71.757813 0 99.070313 13.65625 13.65625 31.59375 20.484375 49.535156 20.484375 17.9375 0 35.878907-6.828125 49.535157-20.484375l87.039062-87.042969c13.234375-13.230469 20.519531-30.820313 20.519531-49.535156 0-18.710938-7.285156-36.300781-20.519531-49.53125-11.363281-11.367188-14.445312-27.914063-9.261719-42.101563 11.304688 4.980469 21.6875 12.066406 30.492188 20.871094 18.902344 18.902344 29.308594 44.03125 29.308594 70.761719 0 26.734375-10.40625 51.867187-29.308594 70.769531zm-11.535156-186.609375 77.347656-77.34375c7.558594-7.5625 17.613281-11.726563 28.304688-11.726563 10.691406 0 20.746093 4.164063 28.304687 11.726563 15.609375 15.605469 15.609375 41.003906 0 56.609375l-77.308594 77.308594c-6.117187-11.933594-14.128906-22.96875-23.882812-32.726563-9.632813-9.628906-20.722657-17.675781-32.765625-23.847656zm176.417968 21.726563-87.042968 87.039062c-5.722656 5.726562-11.988282 10.652344-18.738282 14.765625.148438-2.550781.234376-5.113281.234376-7.6875 0-9.796875-1.078126-19.425781-3.171876-28.753906l.449219.445312 87.039063-87.039062c13.230468-13.230469 20.519531-30.824219 20.519531-49.535157 0-18.710937-7.289063-36.304687-20.519531-49.535156-13.230469-13.230468-30.824219-20.519531-49.535156-20.519531-18.710938 0-36.304688 7.289063-49.535157 20.519531l-87.042969 87.039063c-27.3125 27.316406-27.3125 71.757812 0 99.070312 7.5625 7.5625 11.726563 17.617188 11.726563 28.308594 0 4.78125-.839844 9.433594-2.4375 13.792969-11.3125-4.976563-21.691406-12.042969-30.519531-20.871094-18.898438-18.902344-29.308594-44.03125-29.308594-70.761719 0-26.734375 10.410156-51.863281 29.308594-70.765625l87.042968-87.042968c39.019532-39.019532 102.507813-39.019532 141.53125 0 39.019532 39.019531 39.019532 102.511718 0 141.53125zm0 0"/></svg>