<?xml version="1.0" encoding="iso-8859-1"?>
<!-- Generator: Adobe Illustrator 19.0.0, SVG Export Plug-In . SVG Version: 6.00 Build 0)  -->
<svg version="1.1" id="Capa_1" xmlns="http://www.w3.org/2000/svg" xmlns:xlink="http://www.w3.org/1999/xlink" x="0px" y="0px"
	 viewBox="0 0 512 512" style="enable-background:new 0 0 512 512;" xml:space="preserve">
<g>
	<g>
		<g>
			<path d="M26.219,171.712c-5.568-1.813-11.627,1.152-13.504,6.741C4.267,203.712,0,229.803,0,256s4.267,52.288,12.693,77.547
				c1.515,4.48,5.675,7.296,10.133,7.296c1.131,0,2.261-0.192,3.392-0.576c5.568-1.856,8.597-7.893,6.741-13.483
				C25.259,303.701,21.333,279.893,21.333,256s3.925-47.701,11.627-70.805C34.816,179.627,31.808,173.568,26.219,171.712z"/>
			<path d="M66.645,185.195c-5.653-1.856-11.627,1.152-13.504,6.763C46.187,212.843,42.667,234.389,42.667,256
				s3.52,43.157,10.475,64.064c1.515,4.48,5.653,7.296,10.133,7.296c1.131,0,2.24-0.192,3.371-0.555
				c5.568-1.856,8.597-7.893,6.741-13.483C67.157,294.592,64,275.307,64,256s3.157-38.592,9.387-57.323
				C75.243,193.109,72.235,187.051,66.645,185.195z"/>
			<path d="M192,256c0-11.776-9.557-21.333-21.333-21.333s-21.333,9.557-21.333,21.333s9.557,21.333,21.333,21.333
				S192,267.776,192,256z"/>
			<path d="M298.667,0c-67.029,0-128.619,36.821-169.408,100.949c-13.696,11.733-22.592,28.971-22.592,48.384v213.333
				c0,19.413,8.896,36.651,22.592,48.384C170.048,475.179,231.637,512,298.667,512C416.299,512,512,397.163,512,256
				S416.299,0,298.667,0z M128,362.667V149.333c0-13.099,6.059-24.683,15.36-32.512c0.021-0.021,0.064-0.043,0.085-0.064
				c7.424-6.208,16.832-10.091,27.221-10.091c23.531,0,42.667,19.136,42.667,42.667v213.333c0,23.531-19.136,42.667-42.667,42.667
				C147.136,405.333,128,386.197,128,362.667z M211.563,100.523C236.949,76.928,267.456,64,298.667,64
				C380.992,64,448,150.144,448,256s-67.008,192-149.333,192c-31.211,0-61.717-12.928-87.104-36.523
				c13.995-11.755,23.104-29.141,23.104-48.811V149.333C234.667,129.664,225.557,112.277,211.563,100.523z M298.667,490.667
				c-49.579,0-95.915-23.275-131.328-64.341c1.131,0.064,2.197,0.341,3.328,0.341c7.701,0,14.997-1.579,21.845-4.096
				c30.165,30.101,67.52,46.763,106.155,46.763c94.101,0,170.667-95.701,170.667-213.333S392.768,42.667,298.667,42.667
				c-38.635,0-76.011,16.661-106.155,46.763c-6.848-2.517-14.144-4.096-21.845-4.096c-1.131,0-2.197,0.277-3.328,0.341
				c35.413-41.067,81.749-64.341,131.328-64.341c105.877,0,192,105.28,192,234.667S404.544,490.667,298.667,490.667z"/>
		</g>
	</g>
</g>
<g>
</g>
<g>
</g>
<g>
</g>
<g>
</g>
<g>
</g>
<g>
</g>
<g>
</g>
<g>
</g>
<g>
</g>
<g>
</g>
<g>
</g>
<g>
</g>
<g>
</g>
<g>
</g>
<g>
</g>
</svg>
