<svg id="Calque_1" data-name="Calque 1" xmlns="http://www.w3.org/2000/svg" xmlns:xlink="http://www.w3.org/1999/xlink" viewBox="0 0 200.02 219.62"><defs><style>.cls-1{fill:none;}.cls-2{clip-path:url(#clip-path);}.cls-3{fill:#32c1cc;}.cls-4{fill:#231f20;}</style><clipPath id="clip-path" transform="translate(-162.66 -156.6)"><polyline class="cls-1" points="0 0 500 0 500 500 0 500"/></clipPath></defs><title>Logo Irocare</title><g class="cls-2"><path class="cls-3" d="M248.53,262.62c-20.91,2.45-37.28-16.71-34.39-36.81,4.54-31,42.37-40.35,66.72-25.27,20.49,12.64,28.88,37.09,24.21,59.91-5.78,28.12-30.13,47.95-57.23,55.29,45.53,3.53,83.78-39.53,77.72-83.55-4.54-32.87-31.09-59.09-64.93-60.72-22.14-1.08-43.88,10.19-54.33,29.48-7.16,13.18-9.22,28.39-2.48,42.38,8.12,17,26.41,26.9,44.71,19.29" transform="translate(-162.66 -156.6)"/><path class="cls-4" d="M247.29,209.92c20.91-2.45,37.28,16.7,34.39,36.81-4.54,31-42.37,40.35-66.72,25.27-20.49-12.64-28.89-37.09-24.21-59.91,5.78-28.12,30.13-48,57.23-55.29-45.54-3.53-83.78,39.53-77.73,83.54,4.54,32.88,31.09,59.1,64.93,60.73,22.15,1.09,43.89-10.19,54.34-29.48,7.15-13.18,9.22-28.39,2.48-42.38-8.12-17-26.55-27-44.71-19.29" transform="translate(-162.66 -156.6)"/><rect class="cls-4" y="189.29" width="3.45" height="30.16"/><path class="cls-4" d="M190.93,366.39c-.63.06-1.32.12-2,.12h-8v9.54h-3.44V345.89h11.49c7.52,0,11.89,3.73,11.89,10.11,0,5-2.41,8.38-6.78,9.76l7.07,10.29h-3.91Zm-2-3.21c5.46,0,8.56-2.42,8.56-7.13s-3.1-6.89-8.56-6.89h-8v14Z" transform="translate(-162.66 -156.6)"/><path class="cls-4" d="M239.53,360.94a15.47,15.47,0,0,1-15.8,15.28c-8.85,0-15.8-6.78-15.8-15.28s7-15.17,15.8-15.17,15.8,6.66,15.8,15.17m-28.15,0a12.3,12.3,0,0,0,24.59,0A12,12,0,0,0,223.73,349a12.17,12.17,0,0,0-12.35,11.9" transform="translate(-162.66 -156.6)"/></g><path class="cls-4" d="M362.69,339.23a5.42,5.42,0,1,1-5.4-5.27A5.29,5.29,0,0,1,362.69,339.23Zm-9.48,0a4.07,4.07,0,1,0,4.08-4.21A4.08,4.08,0,0,0,353.21,339.23Zm3.24,2.76h-1.22v-5.27a11.24,11.24,0,0,1,2-.16,3.27,3.27,0,0,1,1.84.39,1.45,1.45,0,0,1,.51,1.16,1.36,1.36,0,0,1-1.09,1.22v.06a1.56,1.56,0,0,1,1,1.29,3.87,3.87,0,0,0,.39,1.31h-1.32a4.42,4.42,0,0,1-.42-1.28c-.09-.58-.41-.84-1.09-.84h-.58Zm0-3h.58c.68,0,1.22-.23,1.22-.78s-.35-.8-1.12-.8a2.53,2.53,0,0,0-.68.07Z" transform="translate(-162.66 -156.6)"/><path class="cls-3" d="M259.27,347.15a14.69,14.69,0,0,1,10.11,4.1l-2.62,3.27a10.39,10.39,0,0,0-7.41-3.38,9.37,9.37,0,1,0,0,18.73,11,11,0,0,0,7.41-3.15l2.66,3a15.11,15.11,0,0,1-10.3,4.37,13.48,13.48,0,0,1-13.83-13.53C245.29,353,251.41,347.15,259.27,347.15Z" transform="translate(-162.66 -156.6)"/><path class="cls-3" d="M282.07,347.26h4.6l11.63,26.6h-4.79l-2.55-6H277.55l-2.54,6h-4.68Zm7.18,16.61-5-11.82-5,11.82Z" transform="translate(-162.66 -156.6)"/><path class="cls-3" d="M301.83,347.26h10.79c6.81,0,10.72,3.31,10.72,9.08,0,4.26-2,7.26-5.51,8.63l6,8.89h-5.08l-4.87-8.05c-.38,0-.8,0-1.22,0h-6.3v8h-4.49Zm10.79,14.56c4.11,0,6.46-1.75,6.46-5.36s-2.35-5.17-6.46-5.17h-6.3v10.53Z" transform="translate(-162.66 -156.6)"/><path class="cls-3" d="M329.31,347.26h19v4H333.79v7.18h13v4h-13v7.33h15v4H329.31Z" transform="translate(-162.66 -156.6)"/></svg>